<mxfile host="app.diagrams.net" modified="2024-01-04T13:26:44.933Z" agent="Mozilla/5.0 (Windows NT 10.0; Win64; x64) AppleWebKit/537.36 (KHTML, like Gecko) Chrome/120.0.0.0 Safari/537.36" etag="qDL5zCQomjsfVU8SJzh5" version="22.1.16" type="google">
  <diagram id="C5RBs43oDa-KdzZeNtuy" name="Page-1">
    <mxGraphModel grid="1" page="1" gridSize="10" guides="1" tooltips="1" connect="1" arrows="1" fold="1" pageScale="1" pageWidth="827" pageHeight="1169" math="0" shadow="0">
      <root>
        <mxCell id="WIyWlLk6GJQsqaUBKTNV-0" />
        <mxCell id="WIyWlLk6GJQsqaUBKTNV-1" parent="WIyWlLk6GJQsqaUBKTNV-0" />
        <mxCell id="shi0sfGra3IClLKKD0Vp-0" value="" style="whiteSpace=wrap;html=1;aspect=fixed;" vertex="1" parent="WIyWlLk6GJQsqaUBKTNV-1">
          <mxGeometry x="-1210" y="-10" width="2620" height="2620" as="geometry" />
        </mxCell>
        <mxCell id="8dO3eOqFWwchRG-gapkK-91" value="EventListing" style="html=1;overflow=block;blockSpacing=1;swimlane;childLayout=stackLayout;horizontal=1;horizontalStack=0;resizeParent=1;resizeParentMax=0;resizeLast=0;collapsible=0;fontStyle=0;marginBottom=0;swimlaneFillColor=#ffffff;startSize=25;whiteSpace=wrap;fontSize=25;align=left;spacing=0;strokeColor=#3a414a;strokeOpacity=100;rounded=1;absoluteArcSize=1;arcSize=9;strokeWidth=0.8;" vertex="1" parent="WIyWlLk6GJQsqaUBKTNV-1">
          <mxGeometry x="525" y="1770" width="415" height="821.7091520302714" as="geometry" />
        </mxCell>
        <mxCell id="8dO3eOqFWwchRG-gapkK-92" value="+event_id:int&#xa;+name:string&#xa;+start_date:date&#xa;+end_date:date&#xa;+start_time:time&#xa;+end_time:time&#xa;+location:string&#xa;+registration_link:string&#xa;+description:string&#xa;+poster:file&#xa;+organisation_id :int&#xa;+number_of_people_interested:int" style="part=1;html=1;resizeHeight=0;strokeColor=none;fillColor=none;align=left;verticalAlign=middle;spacingLeft=4;spacingRight=4;overflow=hidden;rotatable=0;points=[[0,0.5],[1,0.5]];portConstraint=eastwest;swimlaneFillColor=#ffffff;strokeOpacity=100;whiteSpace=wrap;fontSize=25;" vertex="1" parent="8dO3eOqFWwchRG-gapkK-91">
          <mxGeometry y="25" width="415" height="349" as="geometry" />
        </mxCell>
        <mxCell id="8dO3eOqFWwchRG-gapkK-93" value="" style="line;strokeWidth=1;fillColor=none;align=left;verticalAlign=middle;spacingTop=-1;spacingLeft=3;spacingRight=3;rotatable=0;labelPosition=right;points=[];portConstraint=eastwest;" vertex="1" parent="8dO3eOqFWwchRG-gapkK-91">
          <mxGeometry y="374" width="415" height="8" as="geometry" />
        </mxCell>
        <mxCell id="8dO3eOqFWwchRG-gapkK-94" value="+createEvent()&#xa;+updateEvent()&#xa;+DeleteEvent()&#xa;+yourEvents()&#xa;+viewAllEvents()&#xa;+viewEventDetails()" style="part=1;html=1;resizeHeight=0;strokeColor=none;fillColor=none;align=left;verticalAlign=middle;spacingLeft=4;spacingRight=4;overflow=hidden;rotatable=0;points=[[0,0.5],[1,0.5]];portConstraint=eastwest;swimlaneFillColor=#ffffff;strokeOpacity=100;whiteSpace=wrap;fontSize=25;" vertex="1" parent="8dO3eOqFWwchRG-gapkK-91">
          <mxGeometry y="382" width="415" height="439.7091520302714" as="geometry" />
        </mxCell>
        <mxCell id="8dO3eOqFWwchRG-gapkK-95" value="Restaurant" style="html=1;overflow=block;blockSpacing=1;swimlane;childLayout=stackLayout;horizontal=1;horizontalStack=0;resizeParent=1;resizeParentMax=0;resizeLast=0;collapsible=0;fontStyle=0;marginBottom=0;swimlaneFillColor=#ffffff;startSize=25;whiteSpace=wrap;fontSize=25;align=left;spacing=0;strokeColor=#3a414a;strokeOpacity=100;rounded=1;absoluteArcSize=1;arcSize=9;strokeWidth=0.8;" vertex="1" parent="WIyWlLk6GJQsqaUBKTNV-1">
          <mxGeometry x="-330" y="1890" width="435" height="552.7091520302714" as="geometry" />
        </mxCell>
        <mxCell id="8dO3eOqFWwchRG-gapkK-96" value="+restaurant_id (PK):int&#xa;+name:string&#xa;+location:string&#xa;+overall_price_per_head:int&#xa;+overall_rating:int&#xa;+number_of_recommendations:int" style="part=1;html=1;resizeHeight=0;strokeColor=none;fillColor=none;align=left;verticalAlign=middle;spacingLeft=4;spacingRight=4;overflow=hidden;rotatable=0;points=[[0,0.5],[1,0.5]];portConstraint=eastwest;swimlaneFillColor=#ffffff;strokeOpacity=100;whiteSpace=wrap;fontSize=25;" vertex="1" parent="8dO3eOqFWwchRG-gapkK-95">
          <mxGeometry y="25" width="435" height="214" as="geometry" />
        </mxCell>
        <mxCell id="8dO3eOqFWwchRG-gapkK-97" value="" style="line;strokeWidth=1;fillColor=none;align=left;verticalAlign=middle;spacingTop=-1;spacingLeft=3;spacingRight=3;rotatable=0;labelPosition=right;points=[];portConstraint=eastwest;" vertex="1" parent="8dO3eOqFWwchRG-gapkK-95">
          <mxGeometry y="239" width="435" height="8" as="geometry" />
        </mxCell>
        <mxCell id="8dO3eOqFWwchRG-gapkK-98" value="+AddReviewFromMainPage()&#xa;+ListTopRatedRestaurants()&#xa;+RestaurantDetailView()" style="part=1;html=1;resizeHeight=0;strokeColor=none;fillColor=none;align=left;verticalAlign=middle;spacingLeft=4;spacingRight=4;overflow=hidden;rotatable=0;points=[[0,0.5],[1,0.5]];portConstraint=eastwest;swimlaneFillColor=#ffffff;strokeOpacity=100;whiteSpace=wrap;fontSize=25;" vertex="1" parent="8dO3eOqFWwchRG-gapkK-95">
          <mxGeometry y="247" width="435" height="305.7091520302714" as="geometry" />
        </mxCell>
        <mxCell id="8dO3eOqFWwchRG-gapkK-99" value="RidedListing" style="html=1;overflow=block;blockSpacing=1;swimlane;childLayout=stackLayout;horizontal=1;horizontalStack=0;resizeParent=1;resizeParentMax=0;resizeLast=0;collapsible=0;fontStyle=0;marginBottom=0;swimlaneFillColor=#ffffff;startSize=25;whiteSpace=wrap;fontSize=25;align=left;spacing=0;strokeColor=#3a414a;strokeOpacity=100;rounded=1;absoluteArcSize=1;arcSize=9;strokeWidth=0.8;" vertex="1" parent="WIyWlLk6GJQsqaUBKTNV-1">
          <mxGeometry x="-1080" y="495" width="435" height="941.7091520302714" as="geometry" />
        </mxCell>
        <mxCell id="8dO3eOqFWwchRG-gapkK-100" value="+rideid &#xa;+from_location&#xa;+to_location&#xa;+start_date&#xa;+end_date&#xa;+start_time&#xa;+end_time&#xa;+vehicle_type&#xa;+extra_helmet&#xa;+vehicle_name&#xa;+vehicle_numer&#xa;+seats_available&#xa;+price&#xa;+description&#xa;+owner_id &#xa;+booking_id " style="part=1;html=1;resizeHeight=0;strokeColor=none;fillColor=none;align=left;verticalAlign=middle;spacingLeft=4;spacingRight=4;overflow=hidden;rotatable=0;points=[[0,0.5],[1,0.5]];portConstraint=eastwest;swimlaneFillColor=#ffffff;strokeOpacity=100;whiteSpace=wrap;fontSize=25;" vertex="1" parent="8dO3eOqFWwchRG-gapkK-99">
          <mxGeometry y="25" width="435" height="409" as="geometry" />
        </mxCell>
        <mxCell id="8dO3eOqFWwchRG-gapkK-101" value="" style="line;strokeWidth=1;fillColor=none;align=left;verticalAlign=middle;spacingTop=-1;spacingLeft=3;spacingRight=3;rotatable=0;labelPosition=right;points=[];portConstraint=eastwest;" vertex="1" parent="8dO3eOqFWwchRG-gapkK-99">
          <mxGeometry y="434" width="435" height="8" as="geometry" />
        </mxCell>
        <mxCell id="8dO3eOqFWwchRG-gapkK-102" value="+publishRide()&#xa;+findRide()&#xa;+rideDetails()&#xa;+yourRides()&#xa;+editYourRides()&#xa;+deleteYourRides()" style="part=1;html=1;resizeHeight=0;strokeColor=none;fillColor=none;align=left;verticalAlign=middle;spacingLeft=4;spacingRight=4;overflow=hidden;rotatable=0;points=[[0,0.5],[1,0.5]];portConstraint=eastwest;swimlaneFillColor=#ffffff;strokeOpacity=100;whiteSpace=wrap;fontSize=25;" vertex="1" parent="8dO3eOqFWwchRG-gapkK-99">
          <mxGeometry y="442" width="435" height="499.7091520302714" as="geometry" />
        </mxCell>
        <mxCell id="8dO3eOqFWwchRG-gapkK-103" value="Recommendation" style="html=1;overflow=block;blockSpacing=1;swimlane;childLayout=stackLayout;horizontal=1;horizontalStack=0;resizeParent=1;resizeParentMax=0;resizeLast=0;collapsible=0;fontStyle=0;marginBottom=0;swimlaneFillColor=#ffffff;startSize=25;whiteSpace=wrap;fontSize=25;align=left;spacing=0;strokeColor=#3a414a;strokeOpacity=100;rounded=1;absoluteArcSize=1;arcSize=9;strokeWidth=0.8;" vertex="1" parent="WIyWlLk6GJQsqaUBKTNV-1">
          <mxGeometry x="-1110" y="1440" width="435" height="761.7091520302714" as="geometry" />
        </mxCell>
        <mxCell id="8dO3eOqFWwchRG-gapkK-104" value="+recommendation id:int&#xa;+food_rating:int&#xa;+service_rating:int&#xa;+ambience_rating:int&#xa;+average_user_rating:int&#xa;+user_average_price_per_head:int&#xa;+top_recommendation:string&#xa;+description:string&#xa;+image:file&#xa;+restaurant_id:int&#xa;+owner_id:int " style="part=1;html=1;resizeHeight=0;strokeColor=none;fillColor=none;align=left;verticalAlign=middle;spacingLeft=4;spacingRight=4;overflow=hidden;rotatable=0;points=[[0,0.5],[1,0.5]];portConstraint=eastwest;swimlaneFillColor=#ffffff;strokeOpacity=100;whiteSpace=wrap;fontSize=25;" vertex="1" parent="8dO3eOqFWwchRG-gapkK-103">
          <mxGeometry y="25" width="435" height="319" as="geometry" />
        </mxCell>
        <mxCell id="8dO3eOqFWwchRG-gapkK-105" value="" style="line;strokeWidth=1;fillColor=none;align=left;verticalAlign=middle;spacingTop=-1;spacingLeft=3;spacingRight=3;rotatable=0;labelPosition=right;points=[];portConstraint=eastwest;" vertex="1" parent="8dO3eOqFWwchRG-gapkK-103">
          <mxGeometry y="344" width="435" height="8" as="geometry" />
        </mxCell>
        <mxCell id="8dO3eOqFWwchRG-gapkK-106" value="+AddReviewFromMainPage()&#xa;+AddReviewForRestaurant()&#xa;+YourFoodRecommendations()&#xa;+EditRecommendationView()&#xa;+DeleteRecommendationView()" style="part=1;html=1;resizeHeight=0;strokeColor=none;fillColor=none;align=left;verticalAlign=middle;spacingLeft=4;spacingRight=4;overflow=hidden;rotatable=0;points=[[0,0.5],[1,0.5]];portConstraint=eastwest;swimlaneFillColor=#ffffff;strokeOpacity=100;whiteSpace=wrap;fontSize=25;" vertex="1" parent="8dO3eOqFWwchRG-gapkK-103">
          <mxGeometry y="352" width="435" height="409.7091520302714" as="geometry" />
        </mxCell>
        <mxCell id="8dO3eOqFWwchRG-gapkK-107" value="Organisation" style="html=1;overflow=block;blockSpacing=1;swimlane;childLayout=stackLayout;horizontal=1;horizontalStack=0;resizeParent=1;resizeParentMax=0;resizeLast=0;collapsible=0;fontStyle=0;marginBottom=0;swimlaneFillColor=#ffffff;startSize=25;whiteSpace=wrap;fontSize=25;align=left;spacing=0;strokeColor=#3a414a;strokeOpacity=100;rounded=1;absoluteArcSize=1;arcSize=9;strokeWidth=0.8;" vertex="1" parent="WIyWlLk6GJQsqaUBKTNV-1">
          <mxGeometry x="675" y="855" width="525" height="761.7091520302714" as="geometry" />
        </mxCell>
        <mxCell id="8dO3eOqFWwchRG-gapkK-108" value="&#xa;+user(FK):int&#xa;+about:string&#xa;+website_link:string&#xa;+instagram_link:string&#xa;+linkedin_link:string&#xa;+instagram_link:string&#xa;+facebook_link:string&#xa;+photo:file&#xa;+registrations_status:string" style="part=1;html=1;resizeHeight=0;strokeColor=none;fillColor=none;align=left;verticalAlign=middle;spacingLeft=4;spacingRight=4;overflow=hidden;rotatable=0;points=[[0,0.5],[1,0.5]];portConstraint=eastwest;swimlaneFillColor=#ffffff;strokeOpacity=100;whiteSpace=wrap;fontSize=25;" vertex="1" parent="8dO3eOqFWwchRG-gapkK-107">
          <mxGeometry y="25" width="525" height="319" as="geometry" />
        </mxCell>
        <mxCell id="8dO3eOqFWwchRG-gapkK-109" value="" style="line;strokeWidth=1;fillColor=none;align=left;verticalAlign=middle;spacingTop=-1;spacingLeft=3;spacingRight=3;rotatable=0;labelPosition=right;points=[];portConstraint=eastwest;" vertex="1" parent="8dO3eOqFWwchRG-gapkK-107">
          <mxGeometry y="344" width="525" height="8" as="geometry" />
        </mxCell>
        <mxCell id="8dO3eOqFWwchRG-gapkK-110" value="+OrganisationRegistrationRequestApprove()&#xa;+OrganisationRegistrationRequestReject()&#xa;+OrganisationReigstration()&#xa;+OrganisationprofileEdit()&#xa;+OrganisationProfileView()&#xa;+listOrganisations()" style="part=1;html=1;resizeHeight=0;strokeColor=none;fillColor=none;align=left;verticalAlign=middle;spacingLeft=4;spacingRight=4;overflow=hidden;rotatable=0;points=[[0,0.5],[1,0.5]];portConstraint=eastwest;swimlaneFillColor=#ffffff;strokeOpacity=100;whiteSpace=wrap;fontSize=25;" vertex="1" parent="8dO3eOqFWwchRG-gapkK-107">
          <mxGeometry y="352" width="525" height="409.7091520302714" as="geometry" />
        </mxCell>
        <mxCell id="8dO3eOqFWwchRG-gapkK-111" value="User" style="html=1;overflow=block;blockSpacing=1;swimlane;childLayout=stackLayout;horizontal=1;horizontalStack=0;resizeParent=1;resizeParentMax=0;resizeLast=0;collapsible=0;fontStyle=0;marginBottom=0;swimlaneFillColor=#ffffff;startSize=25;whiteSpace=wrap;fontSize=25;align=left;spacing=0;strokeColor=#3a414a;strokeOpacity=100;rounded=1;absoluteArcSize=1;arcSize=9;strokeWidth=0.8;" vertex="1" parent="WIyWlLk6GJQsqaUBKTNV-1">
          <mxGeometry x="360" y="30" width="435" height="731.7091520302714" as="geometry" />
        </mxCell>
        <mxCell id="8dO3eOqFWwchRG-gapkK-112" value="+userid (PK):int &#xa;+first_name:string&#xa;+last_name:string&#xa;+username:string&#xa;+password:string&#xa;+emailid:string&#xa;+is_student:bool&#xa;+is_organisation:bool&#xa;+is_admin:bool&#xa;+date_joined:datetime&#xa;+is_active" style="part=1;html=1;resizeHeight=0;strokeColor=none;fillColor=none;align=left;verticalAlign=middle;spacingLeft=4;spacingRight=4;overflow=hidden;rotatable=0;points=[[0,0.5],[1,0.5]];portConstraint=eastwest;swimlaneFillColor=#ffffff;strokeOpacity=100;whiteSpace=wrap;fontSize=25;" vertex="1" parent="8dO3eOqFWwchRG-gapkK-111">
          <mxGeometry y="25" width="435" height="304" as="geometry" />
        </mxCell>
        <mxCell id="8dO3eOqFWwchRG-gapkK-113" value="" style="line;strokeWidth=1;fillColor=none;align=left;verticalAlign=middle;spacingTop=-1;spacingLeft=3;spacingRight=3;rotatable=0;labelPosition=right;points=[];portConstraint=eastwest;" vertex="1" parent="8dO3eOqFWwchRG-gapkK-111">
          <mxGeometry y="329" width="435" height="8" as="geometry" />
        </mxCell>
        <mxCell id="8dO3eOqFWwchRG-gapkK-114" value="+login()&#xa;+changePassword()&#xa;+logout()&#xa;+deleteAccount()" style="part=1;html=1;resizeHeight=0;strokeColor=none;fillColor=none;align=left;verticalAlign=middle;spacingLeft=4;spacingRight=4;overflow=hidden;rotatable=0;points=[[0,0.5],[1,0.5]];portConstraint=eastwest;swimlaneFillColor=#ffffff;strokeOpacity=100;whiteSpace=wrap;fontSize=25;" vertex="1" parent="8dO3eOqFWwchRG-gapkK-111">
          <mxGeometry y="337" width="435" height="394.7091520302714" as="geometry" />
        </mxCell>
        <mxCell id="8dO3eOqFWwchRG-gapkK-115" value="Student" style="html=1;overflow=block;blockSpacing=1;swimlane;childLayout=stackLayout;horizontal=1;horizontalStack=0;resizeParent=1;resizeParentMax=0;resizeLast=0;collapsible=0;fontStyle=0;marginBottom=0;swimlaneFillColor=#ffffff;startSize=25;whiteSpace=wrap;fontSize=25;align=left;spacing=0;strokeColor=#3a414a;strokeOpacity=100;rounded=1;absoluteArcSize=1;arcSize=9;strokeWidth=0.8;" vertex="1" parent="WIyWlLk6GJQsqaUBKTNV-1">
          <mxGeometry x="-240" y="855" width="435" height="612.7091520302714" as="geometry" />
        </mxCell>
        <mxCell id="8dO3eOqFWwchRG-gapkK-116" value="+user(FK):int&#xa;+joining_year:int&#xa;+passout_year:int&#xa;+branch:string&#xa;+division:string&#xa;+gender:string&#xa;+phone_number:int&#xa;+photo:file" style="part=1;html=1;resizeHeight=0;strokeColor=none;fillColor=none;align=left;verticalAlign=middle;spacingLeft=4;spacingRight=4;overflow=hidden;rotatable=0;points=[[0,0.5],[1,0.5]];portConstraint=eastwest;swimlaneFillColor=#ffffff;strokeOpacity=100;whiteSpace=wrap;fontSize=25;" vertex="1" parent="8dO3eOqFWwchRG-gapkK-115">
          <mxGeometry y="25" width="435" height="244" as="geometry" />
        </mxCell>
        <mxCell id="8dO3eOqFWwchRG-gapkK-117" value="" style="line;strokeWidth=1;fillColor=none;align=left;verticalAlign=middle;spacingTop=-1;spacingLeft=3;spacingRight=3;rotatable=0;labelPosition=right;points=[];portConstraint=eastwest;" vertex="1" parent="8dO3eOqFWwchRG-gapkK-115">
          <mxGeometry y="269" width="435" height="8" as="geometry" />
        </mxCell>
        <mxCell id="8dO3eOqFWwchRG-gapkK-118" value="+studentReigstration()&#xa;+studentprofileEdit()&#xa;+studentProfileView()" style="part=1;html=1;resizeHeight=0;strokeColor=none;fillColor=none;align=left;verticalAlign=middle;spacingLeft=4;spacingRight=4;overflow=hidden;rotatable=0;points=[[0,0.5],[1,0.5]];portConstraint=eastwest;swimlaneFillColor=#ffffff;strokeOpacity=100;whiteSpace=wrap;fontSize=25;" vertex="1" parent="8dO3eOqFWwchRG-gapkK-115">
          <mxGeometry y="277" width="435" height="335.7091520302714" as="geometry" />
        </mxCell>
        <mxCell id="8dO3eOqFWwchRG-gapkK-119" value="RideBooking" style="html=1;overflow=block;blockSpacing=1;swimlane;childLayout=stackLayout;horizontal=1;horizontalStack=0;resizeParent=1;resizeParentMax=0;resizeLast=0;collapsible=0;fontStyle=0;marginBottom=0;swimlaneFillColor=#ffffff;startSize=25;whiteSpace=wrap;fontSize=25;align=left;spacing=0;strokeColor=#3a414a;strokeOpacity=100;rounded=1;absoluteArcSize=1;arcSize=9;strokeWidth=0.8;" vertex="1" parent="WIyWlLk6GJQsqaUBKTNV-1">
          <mxGeometry x="-405" y="120" width="435" height="582.7091520302714" as="geometry" />
        </mxCell>
        <mxCell id="8dO3eOqFWwchRG-gapkK-120" value="+booking_id (PK):int&#xa;+ride_id  (FK):int&#xa;+passenger_id(FK):int&#xa;+seats_booked:int&#xa;+created_at:datetime" style="part=1;html=1;resizeHeight=0;strokeColor=none;fillColor=none;align=left;verticalAlign=middle;spacingLeft=4;spacingRight=4;overflow=hidden;rotatable=0;points=[[0,0.5],[1,0.5]];portConstraint=eastwest;swimlaneFillColor=#ffffff;strokeOpacity=100;whiteSpace=wrap;fontSize=25;" vertex="1" parent="8dO3eOqFWwchRG-gapkK-119">
          <mxGeometry y="25" width="435" height="229" as="geometry" />
        </mxCell>
        <mxCell id="8dO3eOqFWwchRG-gapkK-121" value="" style="line;strokeWidth=1;fillColor=none;align=left;verticalAlign=middle;spacingTop=-1;spacingLeft=3;spacingRight=3;rotatable=0;labelPosition=right;points=[];portConstraint=eastwest;" vertex="1" parent="8dO3eOqFWwchRG-gapkK-119">
          <mxGeometry y="254" width="435" height="8" as="geometry" />
        </mxCell>
        <mxCell id="8dO3eOqFWwchRG-gapkK-122" value="+bookRide()&#xa;+myBookings()&#xa;+myBookingsDetailed()&#xa;+editBooking()&#xa;+cancelBooking()" style="part=1;html=1;resizeHeight=0;strokeColor=none;fillColor=none;align=left;verticalAlign=middle;spacingLeft=4;spacingRight=4;overflow=hidden;rotatable=0;points=[[0,0.5],[1,0.5]];portConstraint=eastwest;swimlaneFillColor=#ffffff;strokeOpacity=100;whiteSpace=wrap;fontSize=25;" vertex="1" parent="8dO3eOqFWwchRG-gapkK-119">
          <mxGeometry y="262" width="435" height="320.7091520302714" as="geometry" />
        </mxCell>
        <mxCell id="8dO3eOqFWwchRG-gapkK-123" value="" style="html=1;jettySize=18;whiteSpace=wrap;fontSize=13;strokeColor=#3a414a;strokeOpacity=100;strokeWidth=2.3;rounded=1;arcSize=12;edgeStyle=orthogonalEdgeStyle;startArrow=none;endArrow=diamond;endFill=1;endSize=16;exitX=0.5;exitY=-0.001;exitPerimeter=0;entryX=0.5;entryY=1.001;entryPerimeter=0;lucidId=yPi2fQ5_4BFS;" edge="1" parent="WIyWlLk6GJQsqaUBKTNV-1" source="8dO3eOqFWwchRG-gapkK-115" target="8dO3eOqFWwchRG-gapkK-111">
          <mxGeometry width="100" height="100" relative="1" as="geometry">
            <Array as="points" />
          </mxGeometry>
        </mxCell>
        <mxCell id="8dO3eOqFWwchRG-gapkK-124" value="" style="html=1;jettySize=18;whiteSpace=wrap;fontSize=13;strokeColor=#3a414a;strokeOpacity=100;strokeWidth=2.3;rounded=1;arcSize=12;edgeStyle=orthogonalEdgeStyle;startArrow=none;endArrow=diamond;endFill=1;endSize=16;exitX=0.5;exitY=-0.001;exitPerimeter=0;entryX=0.5;entryY=1.001;entryPerimeter=0;lucidId=DPi20RGOEcjQ;" edge="1" parent="WIyWlLk6GJQsqaUBKTNV-1" source="8dO3eOqFWwchRG-gapkK-107" target="8dO3eOqFWwchRG-gapkK-111">
          <mxGeometry width="100" height="100" relative="1" as="geometry">
            <Array as="points" />
          </mxGeometry>
        </mxCell>
        <mxCell id="8dO3eOqFWwchRG-gapkK-125" value="" style="html=1;jettySize=18;whiteSpace=wrap;fontSize=13;strokeColor=#3a414a;strokeOpacity=100;strokeWidth=0.8;rounded=1;arcSize=12;edgeStyle=orthogonalEdgeStyle;startArrow=none;endArrow=diamond;endFill=1;endSize=16;exitX=1.001;exitY=0.5;exitPerimeter=0;entryX=-0.001;entryY=0.498;entryPerimeter=0;lucidId=JUi2IQxxY5Ep;" edge="1" parent="WIyWlLk6GJQsqaUBKTNV-1" source="8dO3eOqFWwchRG-gapkK-103" target="8dO3eOqFWwchRG-gapkK-95">
          <mxGeometry width="100" height="100" relative="1" as="geometry">
            <Array as="points" />
          </mxGeometry>
        </mxCell>
        <mxCell id="8dO3eOqFWwchRG-gapkK-126" value="" style="html=1;jettySize=18;whiteSpace=wrap;fontSize=13;strokeColor=#3a414a;strokeOpacity=100;strokeWidth=0.8;rounded=1;arcSize=12;edgeStyle=orthogonalEdgeStyle;startArrow=none;endArrow=diamond;endFill=1;endSize=16;exitX=0.5;exitY=-0.001;exitPerimeter=0;entryX=0.293;entryY=1.001;entryPerimeter=0;lucidId=4Ui2kD64b0cY;" edge="1" parent="WIyWlLk6GJQsqaUBKTNV-1" source="8dO3eOqFWwchRG-gapkK-95" target="8dO3eOqFWwchRG-gapkK-115">
          <mxGeometry width="100" height="100" relative="1" as="geometry">
            <Array as="points" />
          </mxGeometry>
        </mxCell>
        <mxCell id="8dO3eOqFWwchRG-gapkK-127" value="" style="html=1;jettySize=18;whiteSpace=wrap;fontSize=13;strokeColor=#3a414a;strokeOpacity=100;strokeWidth=0.8;rounded=1;arcSize=12;edgeStyle=orthogonalEdgeStyle;startArrow=none;endArrow=diamond;endFill=1;endSize=16;exitX=1.001;exitY=0.5;exitPerimeter=0;entryX=0.171;entryY=1.001;entryPerimeter=0;lucidId=iVi23vtEcm8k;" edge="1" parent="WIyWlLk6GJQsqaUBKTNV-1" source="8dO3eOqFWwchRG-gapkK-99" target="8dO3eOqFWwchRG-gapkK-119">
          <mxGeometry width="100" height="100" relative="1" as="geometry">
            <Array as="points" />
          </mxGeometry>
        </mxCell>
        <mxCell id="8dO3eOqFWwchRG-gapkK-128" value="" style="html=1;jettySize=18;whiteSpace=wrap;fontSize=13;strokeColor=#3a414a;strokeOpacity=100;strokeWidth=0.8;rounded=1;arcSize=12;edgeStyle=orthogonalEdgeStyle;startArrow=none;endArrow=diamond;endFill=1;endSize=16;exitX=0.5;exitY=-0.001;exitPerimeter=0;entryX=0.591;entryY=1.001;entryPerimeter=0;lucidId=tVi2WhaYASnl;" edge="1" parent="WIyWlLk6GJQsqaUBKTNV-1" source="8dO3eOqFWwchRG-gapkK-91" target="8dO3eOqFWwchRG-gapkK-107">
          <mxGeometry width="100" height="100" relative="1" as="geometry">
            <Array as="points" />
          </mxGeometry>
        </mxCell>
        <mxCell id="8dO3eOqFWwchRG-gapkK-129" value="" style="html=1;jettySize=18;whiteSpace=wrap;fontSize=13;strokeColor=#3a414a;strokeOpacity=100;strokeWidth=0.8;rounded=1;arcSize=12;edgeStyle=orthogonalEdgeStyle;startArrow=none;endArrow=diamond;endFill=1;endSize=16;exitX=-0.001;exitY=0.5;exitPerimeter=0;entryX=0.884;entryY=1.001;entryPerimeter=0;lucidId=XVi2uTgtZSil;" edge="1" parent="WIyWlLk6GJQsqaUBKTNV-1" source="8dO3eOqFWwchRG-gapkK-91" target="8dO3eOqFWwchRG-gapkK-115">
          <mxGeometry width="100" height="100" relative="1" as="geometry">
            <Array as="points" />
          </mxGeometry>
        </mxCell>
        <mxCell id="8dO3eOqFWwchRG-gapkK-130" value="" style="html=1;jettySize=18;whiteSpace=wrap;fontSize=13;strokeColor=#3a414a;strokeOpacity=100;strokeWidth=0.8;rounded=1;arcSize=12;edgeStyle=orthogonalEdgeStyle;startArrow=none;endArrow=diamond;endFill=1;endSize=16;exitX=0.5;exitY=1.001;exitPerimeter=0;entryX=0.121;entryY=-0.001;entryPerimeter=0;lucidId=4Vi2wGgdE1AX;" edge="1" parent="WIyWlLk6GJQsqaUBKTNV-1" source="8dO3eOqFWwchRG-gapkK-119" target="8dO3eOqFWwchRG-gapkK-115">
          <mxGeometry width="100" height="100" relative="1" as="geometry">
            <Array as="points" />
          </mxGeometry>
        </mxCell>
        <mxCell id="8dO3eOqFWwchRG-gapkK-131" value="" style="html=1;jettySize=18;whiteSpace=wrap;fontSize=13;strokeColor=#3a414a;strokeOpacity=100;strokeWidth=0.8;rounded=1;arcSize=12;edgeStyle=orthogonalEdgeStyle;startArrow=none;endArrow=none;exitX=0.5;exitY=-0.001;exitPerimeter=0;entryX=-0.001;entryY=0.381;entryPerimeter=0;lucidId=QWi2GVoHbyqp;" edge="1" parent="WIyWlLk6GJQsqaUBKTNV-1" source="8dO3eOqFWwchRG-gapkK-103" target="8dO3eOqFWwchRG-gapkK-115">
          <mxGeometry width="100" height="100" relative="1" as="geometry">
            <Array as="points">
              <mxPoint x="-892" y="1395" />
              <mxPoint x="-360" y="1395" />
              <mxPoint x="-360" y="1050" />
            </Array>
          </mxGeometry>
        </mxCell>
        <mxCell id="8dO3eOqFWwchRG-gapkK-132" value="" style="html=1;jettySize=18;whiteSpace=wrap;fontSize=13;strokeColor=#3a414a;strokeOpacity=100;strokeWidth=0.8;rounded=1;arcSize=12;edgeStyle=orthogonalEdgeStyle;startArrow=none;endArrow=none;exitX=1.001;exitY=0.584;exitPerimeter=0;entryX=-0.001;entryY=0.258;entryPerimeter=0;lucidId=HXi2ECUBVbzY;" edge="1" parent="WIyWlLk6GJQsqaUBKTNV-1" source="8dO3eOqFWwchRG-gapkK-99" target="8dO3eOqFWwchRG-gapkK-115">
          <mxGeometry width="100" height="100" relative="1" as="geometry">
            <Array as="points" />
          </mxGeometry>
        </mxCell>
        <mxCell id="8dO3eOqFWwchRG-gapkK-133" value="" style="html=1;jettySize=18;whiteSpace=wrap;fontSize=13;strokeColor=#3a414a;strokeOpacity=100;strokeWidth=0.8;rounded=1;arcSize=12;edgeStyle=orthogonalEdgeStyle;startArrow=none;endArrow=diamond;endFill=0;endSize=16;exitX=1.001;exitY=0.5;exitPerimeter=0;entryX=0.079;entryY=-0.001;entryPerimeter=0;lucidId=~Xi2HJ.LvV7B;" edge="1" parent="WIyWlLk6GJQsqaUBKTNV-1" source="8dO3eOqFWwchRG-gapkK-115" target="8dO3eOqFWwchRG-gapkK-91">
          <mxGeometry width="100" height="100" relative="1" as="geometry">
            <Array as="points" />
          </mxGeometry>
        </mxCell>
      </root>
    </mxGraphModel>
  </diagram>
</mxfile>
